<?xml version="1.0" encoding="UTF-8" standalone="no"?>
<svg
   xmlns:ooo="http://xml.openoffice.org/svg/export"
   xmlns:dc="http://purl.org/dc/elements/1.1/"
   xmlns:cc="http://creativecommons.org/ns#"
   xmlns:rdf="http://www.w3.org/1999/02/22-rdf-syntax-ns#"
   xmlns:svg="http://www.w3.org/2000/svg"
   xmlns="http://www.w3.org/2000/svg"
   xmlns:sodipodi="http://sodipodi.sourceforge.net/DTD/sodipodi-0.dtd"
   xmlns:inkscape="http://www.inkscape.org/namespaces/inkscape"
   version="1.2"
   width="650"
   height="650"
   viewBox="0 0 17197.916 17197.916"
   preserveAspectRatio="xMidYMid"
   xml:space="preserve"
   id="svg96"
   sodipodi:docname="logo.svg"
   style="fill-rule:evenodd;stroke-width:28.22200012;stroke-linejoin:round"
   inkscape:export-filename="/home/lbonomo/proyectos/lampalaguas.com/medias/logo.png"
   inkscape:export-xdpi="96"
   inkscape:export-ydpi="96"
   inkscape:version="0.92.4 (5da689c313, 2019-01-14)"><metadata
   id="metadata100"><rdf:RDF><cc:Work
       rdf:about=""><dc:format>image/svg+xml</dc:format><dc:type
         rdf:resource="http://purl.org/dc/dcmitype/StillImage" /><dc:title></dc:title></cc:Work></rdf:RDF></metadata><sodipodi:namedview
   pagecolor="#ffffff"
   bordercolor="#666666"
   borderopacity="1"
   objecttolerance="10"
   gridtolerance="10"
   guidetolerance="10"
   inkscape:pageopacity="0"
   inkscape:pageshadow="2"
   inkscape:window-width="1920"
   inkscape:window-height="1014"
   id="namedview98"
   showgrid="false"
   fit-margin-top="0"
   fit-margin-left="0"
   fit-margin-right="0"
   fit-margin-bottom="0"
   units="px"
   inkscape:zoom="1.164"
   inkscape:cx="269.90599"
   inkscape:cy="337.14168"
   inkscape:window-x="0"
   inkscape:window-y="0"
   inkscape:window-maximized="1"
   inkscape:current-layer="svg96"
   showborder="false" />
 <defs
   class="ClipPathGroup"
   id="defs8">
  <clipPath
   id="presentation_clip_path"
   clipPathUnits="userSpaceOnUse">
   <rect
   x="0"
   y="0"
   width="21000"
   height="29700"
   id="rect2" />
  </clipPath>
  <clipPath
   id="presentation_clip_path_shrink"
   clipPathUnits="userSpaceOnUse">
   <rect
   x="21"
   y="29"
   width="20958"
   height="29641"
   id="rect5" />
  </clipPath>
 </defs>
 <defs
   class="TextShapeIndex"
   id="defs12">
  <g
   ooo:slide="id1"
   ooo:id-list="id3 id4 id5 id6 id7"
   id="g10" />
 </defs>
 <defs
   class="EmbeddedBulletChars"
   id="defs44">
  <g
   id="bullet-char-template-57356"
   transform="matrix(4.8828125e-4,0,0,-4.8828125e-4,0,0)">
   <path
   d="M 580,1141 1163,571 580,0 -4,571 Z"
   id="path14"
   inkscape:connector-curvature="0" />
  </g>
  <g
   id="bullet-char-template-57354"
   transform="matrix(4.8828125e-4,0,0,-4.8828125e-4,0,0)">
   <path
   d="M 8,1128 H 1137 V 0 H 8 Z"
   id="path17"
   inkscape:connector-curvature="0" />
  </g>
  <g
   id="bullet-char-template-10146"
   transform="matrix(4.8828125e-4,0,0,-4.8828125e-4,0,0)">
   <path
   d="M 174,0 602,739 174,1481 1456,739 Z M 1358,739 309,1346 659,739 Z"
   id="path20"
   inkscape:connector-curvature="0" />
  </g>
  <g
   id="bullet-char-template-10132"
   transform="matrix(4.8828125e-4,0,0,-4.8828125e-4,0,0)">
   <path
   d="M 2015,739 1276,0 H 717 l 543,543 H 174 v 393 h 1086 l -543,545 h 557 z"
   id="path23"
   inkscape:connector-curvature="0" />
  </g>
  <g
   id="bullet-char-template-10007"
   transform="matrix(4.8828125e-4,0,0,-4.8828125e-4,0,0)">
   <path
   d="m 0,-2 c -7,16 -16,29 -25,39 l 381,530 c -94,256 -141,385 -141,387 0,25 13,38 40,38 9,0 21,-2 34,-5 21,4 42,12 65,25 l 27,-13 111,-251 280,301 64,-25 24,25 c 21,-10 41,-24 62,-43 C 886,937 835,863 770,784 769,783 710,716 594,584 L 774,223 c 0,-27 -21,-55 -63,-84 l 16,-20 C 717,90 699,76 672,76 641,76 570,178 457,381 L 164,-76 c -22,-34 -53,-51 -92,-51 -42,0 -63,17 -64,51 -7,9 -10,24 -10,44 0,9 1,19 2,30 z"
   id="path26"
   inkscape:connector-curvature="0" />
  </g>
  <g
   id="bullet-char-template-10004"
   transform="matrix(4.8828125e-4,0,0,-4.8828125e-4,0,0)">
   <path
   d="M 285,-33 C 182,-33 111,30 74,156 52,228 41,333 41,471 c 0,78 14,145 41,201 34,71 87,106 158,106 53,0 88,-31 106,-94 l 23,-176 c 8,-64 28,-97 59,-98 l 735,706 c 11,11 33,17 66,17 42,0 63,-15 63,-46 V 965 c 0,-36 -10,-64 -30,-84 L 442,47 C 390,-6 338,-33 285,-33 Z"
   id="path29"
   inkscape:connector-curvature="0" />
  </g>
  <g
   id="bullet-char-template-9679"
   transform="matrix(4.8828125e-4,0,0,-4.8828125e-4,0,0)">
   <path
   d="M 813,0 C 632,0 489,54 383,161 276,268 223,411 223,592 c 0,181 53,324 160,431 106,107 249,161 430,161 179,0 323,-54 432,-161 108,-107 162,-251 162,-431 0,-180 -54,-324 -162,-431 C 1136,54 992,0 813,0 Z"
   id="path32"
   inkscape:connector-curvature="0" />
  </g>
  <g
   id="bullet-char-template-8226"
   transform="matrix(4.8828125e-4,0,0,-4.8828125e-4,0,0)">
   <path
   d="m 346,457 c -73,0 -137,26 -191,78 -54,51 -81,114 -81,188 0,73 27,136 81,188 54,52 118,78 191,78 73,0 134,-26 185,-79 51,-51 77,-114 77,-187 0,-75 -25,-137 -76,-188 -50,-52 -112,-78 -186,-78 z"
   id="path35"
   inkscape:connector-curvature="0" />
  </g>
  <g
   id="bullet-char-template-8211"
   transform="matrix(4.8828125e-4,0,0,-4.8828125e-4,0,0)">
   <path
   d="M -4,459 H 1135 V 606 H -4 Z"
   id="path38"
   inkscape:connector-curvature="0" />
  </g>
  <g
   id="bullet-char-template-61548"
   transform="matrix(4.8828125e-4,0,0,-4.8828125e-4,0,0)">
   <path
   d="m 173,740 c 0,163 58,303 173,419 116,115 255,173 419,173 163,0 302,-58 418,-173 116,-116 174,-256 174,-419 0,-163 -58,-303 -174,-418 C 1067,206 928,148 765,148 601,148 462,206 346,322 231,437 173,577 173,740 Z"
   id="path41"
   inkscape:connector-curvature="0" />
  </g>
 </defs>
 <circle
   style="opacity:1;fill:#ffffff;fill-opacity:1;stroke:none;stroke-width:135.7179718;stroke-linecap:round;stroke-linejoin:round;stroke-miterlimit:4;stroke-dasharray:none;stroke-dashoffset:0;stroke-opacity:1"
   id="path871"
   cx="8598.958"
   cy="8598.958"
   r="8598.958" /><g
   id="g49"
   transform="translate(-1162.6253,3990.541)">
  <g
   id="id2"
   class="Master_Slide">
   <g
   id="bg-id2"
   class="Background" />
   <g
   id="bo-id2"
   class="BackgroundObjects" />
  </g>
 </g>
 <g
   class="SlideGroup"
   id="g94"
   transform="matrix(1.7089492,0,0,1.7089492,-3586.7046,-3663.6073)">
  <g
   id="g92">
   <g
   id="container-id1">
    <g
   id="id1"
   class="Slide"
   clip-path="url(#presentation_clip_path)">
     <g
   class="Page"
   id="g88">
      <g
   class="Group"
   id="g86">
       <g
   class="com.sun.star.drawing.ClosedBezierShape"
   id="g56">
        <g
   id="id3">
         <rect
   class="BoundingBox"
   x="3647"
   y="3629"
   width="6967"
   height="7094"
   id="rect51"
   style="fill:none;stroke:none" />
         <path
   d="m 3647,7935 c 0,489 46,1269 150,1728 158,702 229,753 977,752 661,-1 1650,171 2400,225 957,70 693,81 1749,81 496,0 1631,-322 1285,-974 -211,-399 -1566,-297 -2086,-297 -799,0 -1598,-1 -2398,0 -866,2 -1391,-91 -1391,-1016 0,-1441 2108,-262 3331,-1106 560,-387 535,-641 766,-1429 71,-244 199,-783 417,-1083 306,-418 674,-174 479,272 -74,169 -215,320 -322,481 -1024,1538 121,1625 415,1769 670,326 690,971 149,774 -198,-73 -380,-139 -495,173 -96,259 228,540 435,610 743,249 1104,-671 1104,-1210 0,-832 -573,-923 -906,-1085 -366,-179 -177,-274 92,-374 311,-117 636,-229 636,-1339 0,-406 -58,-859 -289,-1022 -325,-229 -987,-236 -1423,-236 -679,0 -836,830 -983,1422 -202,813 -133,1327 -742,1708 -1310,822 -3350,-762 -3350,1176 z"
   id="path53"
   inkscape:connector-curvature="0"
   style="fill:#778f3a;stroke:none" />
        </g>
       </g>
       <g
   class="com.sun.star.drawing.ClosedBezierShape"
   id="g63">
        <g
   id="id4">
         <rect
   class="BoundingBox"
   x="3723"
   y="3628"
   width="4021"
   height="3073"
   id="rect58"
   style="fill:none;stroke:none" />
         <path
   d="m 3723,5188 v 949 c 0,880 1104,621 1331,-46 193,-568 -89,-522 -443,-571 -236,-32 -445,-150 -252,-397 143,-182 458,-33 748,69 579,202 594,-65 781,-577 122,-335 148,-414 565,-321 395,87 473,397 889,216 385,-168 629,-881 81,-881 -870,0 -1694,62 -2565,143 -464,44 -864,15 -980,272 -89,198 -155,871 -155,1144 z"
   id="path60"
   inkscape:connector-curvature="0"
   style="fill:#778f3a;stroke:none" />
        </g>
       </g>
       <g
   class="com.sun.star.drawing.ClosedBezierShape"
   id="g70">
        <g
   id="id5">
         <rect
   class="BoundingBox"
   x="5458"
   y="5110"
   width="1521"
   height="1501"
   id="rect65"
   style="fill:none;stroke:none" />
         <path
   d="m 6977,5636 c 0,-786 -857,-478 -963,-408 -291,194 -446,532 -535,925 -147,650 541,449 897,337 398,-126 601,-413 601,-854 z"
   id="path67"
   inkscape:connector-curvature="0"
   style="fill:#778f3a;stroke:none" />
        </g>
       </g>
       <g
   class="com.sun.star.drawing.ClosedBezierShape"
   id="g77">
        <g
   id="id6">
         <rect
   class="BoundingBox"
   x="5038"
   y="8174"
   width="1615"
   height="781"
   id="rect72"
   style="fill:none;stroke:none" />
         <path
   d="m 5159,8687 c 265,301 789,303 1126,217 540,-138 495,-625 -211,-625 -445,0 -498,-195 -781,-52 -258,132 -350,213 -134,460 z"
   id="path74"
   inkscape:connector-curvature="0"
   style="fill:#778f3a;stroke:none" />
        </g>
       </g>
       <g
   class="com.sun.star.drawing.ClosedBezierShape"
   id="g84">
        <g
   id="id7">
         <rect
   class="BoundingBox"
   x="7276"
   y="7763"
   width="1225"
   height="931"
   id="rect79"
   style="fill:none;stroke:none" />
         <path
   d="m 8121,7771 c -1156,220 -957,912 -400,922 953,16 962,-1028 400,-922 z"
   id="path81"
   inkscape:connector-curvature="0"
   style="fill:#778f3a;stroke:none" />
        </g>
       </g>
      </g>
     </g>
    </g>
   </g>
  </g>
 </g>
</svg>